<svg xmlns="http://www.w3.org/2000/svg" aria-hidden="true" style="position:absolute;width:0;height:0;overflow:hidden"><defs>

	<symbol id="icon-heart" viewBox="0 0 32 32"><path fill="#4152ca" d="M29.383 3.927a8.766 8.766 0 0 0-6.404-2.795 8.776 8.776 0 0 0-6.411 2.794l-.565.597-.565-.597a8.75 8.75 0 0 0-12.82 0 9.814 9.814 0 0 0 0 13.344l12.555 13.24a1.144 1.144 0 0 0 1.661 0l12.551-13.24a9.813 9.813 0 0 0 0-13.343zm-1.655 11.768h-.001L16.002 28.061 4.276 15.695a7.499 7.499 0 0 1 0-10.196 6.464 6.464 0 0 1 9.501 0l1.394 1.471a1.18 1.18 0 0 0 1.661 0l1.394-1.47a6.464 6.464 0 0 1 9.502 0c2.689 2.88 2.708 7.332 0 10.194z" style="fill:var(--color1, #4152ca)"/></symbol>
<symbol id="icon-leaf" viewBox="0 0 32 32"><path fill="#84829a" d="M31.21.345C30.367.098 9.743-1.955 2.5 7.83c-3.208 4.335-3.256 10.278-.161 17.661a37.161 37.161 0 0 0-2.033 5.158 1.043 1.043 0 0 0 1.992.617C7.819 13.418 25.759 4.784 31.26 2.602c.536-.212 1.251-1.876-.05-2.257z" style="fill:var(--color2, #84829a)"/><path fill="#84829a" d="M5.65 27.725c2.986 1.253 5.972 1.895 8.748 1.895 2.496 0 4.823-.513 6.828-1.554 4.036-2.094 6.503-6.099 7.133-11.583.642-5.59 1.44-9.091 2.107-11.232C24.534 7.987 11.814 15.08 5.65 27.726z" style="fill:var(--color2, #84829a)"/></symbol>
<symbol id="icon-map" viewBox="0 0 32 32"><path fill="#84829a" d="M30.859 0c-.178 0-.353.041-.512.121l-8.66 4.331L11.894.099c-.016-.007-.034-.008-.051-.015a1.238 1.238 0 0 0-.135-.041 1.3 1.3 0 0 0-.138-.029 1.625 1.625 0 0 0-.279 0 1.056 1.056 0 0 0-.138.029 1.238 1.238 0 0 0-.135.041c-.017.007-.035.008-.051.015L.681 4.67a1.143 1.143 0 0 0-.679 1.045v25.142a1.143 1.143 0 0 0 1.607 1.045l9.822-4.366 9.822 4.366c.017.007.035 0 .053.01.277.124.594.117.865-.019.018-.008.039 0 .057-.013l9.143-4.571c.387-.194.632-.59.632-1.023V1.144c0-.631-.511-1.143-1.142-1.143zM10.288 25.543l-8 3.555V6.457l8-3.555v22.641zm10.285 3.555-8-3.555V2.902l8 3.555v22.641zm9.143-3.518-6.857 3.428V6.421l6.857-3.429v22.587z" style="fill:var(--color2, #84829a)"/></symbol>
<symbol id="icon-send-2" viewBox="0 0 32 32"><path fill="#84829a" d="m28.213 2.84-14.44 14.493a3.137 3.137 0 0 0-.52-.24L3.72 13.866a1.335 1.335 0 0 1-.727-2.113c.183-.234.439-.401.727-.473l23.653-8.413c.154-.053.317-.08.48-.08.122-.002.244.016.36.053zM29.134 4.627l-8.413 23.68a1.335 1.335 0 0 1-1.333.907 1.332 1.332 0 0 1-1.334-.934l-3.173-9.533a3.137 3.137 0 0 0-.24-.52l14.52-14.44c.082.276.073.57-.026.84z" style="fill:var(--color1, #84829a)"/></symbol>

	<symbol id="icon-square" viewBox="0 0 32 32"><path d="M28 24v4h-4v-1H8v1H4v-4h1V8H4V4h4v1h16V4h4v4h-1v16h1zM5 27h2v-2H5v2zM7 5H5v2h2V5zm17 2H8v1H7v16h1v1h16v-1h1V8h-1V7zm3-2h-2v2h2V5zm-2 20v2h2v-2h-2z"/></symbol>
	<symbol id="icon-automobile" viewBox="0 0 32 28"><path d="M7.5 17c0-1.375-1.125-2.5-2.5-2.5S2.5 15.625 2.5 17s1.125 2.5 2.5 2.5 2.5-1.125 2.5-2.5zm.562-5h15.875l-1.391-5.578C22.499 6.25 22.187 6 21.999 6h-12c-.187 0-.5.25-.547.422zM29.5 17c0-1.375-1.125-2.5-2.5-2.5s-2.5 1.125-2.5 2.5 1.125 2.5 2.5 2.5 2.5-1.125 2.5-2.5zm2.5-1.5v6c0 .281-.219.5-.5.5H30v2a3.001 3.001 0 0 1-6 0v-2H8v2a3.001 3.001 0 0 1-6 0v-2H.5a.494.494 0 0 1-.5-.5v-6C0 13.563 1.563 12 3.5 12h.438l1.641-6.547C6.063 3.484 7.97 2 10.001 2h12c2.031 0 3.938 1.484 4.422 3.453L28.064 12h.438c1.937 0 3.5 1.563 3.5 3.5z"/></symbol>
	
	<symbol id="icon-credit-card" viewBox="0 0 32 32"><path d="M29 4H3C1.35 4 0 5.35 0 7v18c0 1.65 1.35 3 3 3h26c1.65 0 3-1.35 3-3V7c0-1.65-1.35-3-3-3zM3 6h26c.542 0 1 .458 1 1v3H2V7c0-.542.458-1 1-1zm26 20H3c-.542 0-1-.458-1-1v-9h28v9c0 .542-.458 1-1 1zM4 20h2v4H4zm4 0h2v4H8zm4 0h2v4h-2z"/></symbol>

<symbol id="icon-facebook" viewBox="0 0 32 32"><path d="M19 6h5V0h-5c-3.86 0-7 3.14-7 7v3H8v6h4v16h6V16h5l1-6h-6V7c0-.542.458-1 1-1z"/></symbol>

<symbol id="icon-instagram" viewBox="0 0 32 32"><path d="M16 2.881c4.275 0 4.781.019 6.462.094 1.563.069 2.406.331 2.969.55a4.952 4.952 0 0 1 1.837 1.194 5.015 5.015 0 0 1 1.2 1.838c.219.563.481 1.412.55 2.969.075 1.688.094 2.194.094 6.463s-.019 4.781-.094 6.463c-.069 1.563-.331 2.406-.55 2.969a4.94 4.94 0 0 1-1.194 1.837 5.02 5.02 0 0 1-1.837 1.2c-.563.219-1.413.481-2.969.55-1.688.075-2.194.094-6.463.094s-4.781-.019-6.463-.094c-1.563-.069-2.406-.331-2.969-.55a4.952 4.952 0 0 1-1.838-1.194 5.02 5.02 0 0 1-1.2-1.837c-.219-.563-.481-1.413-.55-2.969-.075-1.688-.094-2.194-.094-6.463s.019-4.781.094-6.463c.069-1.563.331-2.406.55-2.969a4.964 4.964 0 0 1 1.194-1.838 5.015 5.015 0 0 1 1.838-1.2c.563-.219 1.412-.481 2.969-.55 1.681-.075 2.188-.094 6.463-.094zM16 0c-4.344 0-4.887.019-6.594.094-1.7.075-2.869.35-3.881.744-1.056.412-1.95.956-2.837 1.85a7.833 7.833 0 0 0-1.85 2.831C.444 6.538.169 7.7.094 9.4.019 11.113 0 11.656 0 16s.019 4.887.094 6.594c.075 1.7.35 2.869.744 3.881.413 1.056.956 1.95 1.85 2.837a7.82 7.82 0 0 0 2.831 1.844c1.019.394 2.181.669 3.881.744 1.706.075 2.25.094 6.594.094s4.888-.019 6.594-.094c1.7-.075 2.869-.35 3.881-.744 1.05-.406 1.944-.956 2.831-1.844s1.438-1.781 1.844-2.831c.394-1.019.669-2.181.744-3.881.075-1.706.094-2.25.094-6.594s-.019-4.887-.094-6.594c-.075-1.7-.35-2.869-.744-3.881a7.506 7.506 0 0 0-1.831-2.844A7.82 7.82 0 0 0 26.482.843C25.463.449 24.301.174 22.601.099c-1.712-.081-2.256-.1-6.6-.1z"/><path d="M16 7.781c-4.537 0-8.219 3.681-8.219 8.219s3.681 8.219 8.219 8.219 8.219-3.681 8.219-8.219A8.221 8.221 0 0 0 16 7.781zm0 13.55a5.331 5.331 0 1 1 0-10.663 5.331 5.331 0 0 1 0 10.663zM26.462 7.456a1.919 1.919 0 1 1-3.838 0 1.919 1.919 0 0 1 3.838 0z"/></symbol>

<symbol id="icon-twitter" viewBox="0 0 32 32"><path d="M32 7.075a12.941 12.941 0 0 1-3.769 1.031 6.601 6.601 0 0 0 2.887-3.631 13.21 13.21 0 0 1-4.169 1.594A6.565 6.565 0 0 0 22.155 4a6.563 6.563 0 0 0-6.563 6.563c0 .512.056 1.012.169 1.494A18.635 18.635 0 0 1 2.23 5.195a6.56 6.56 0 0 0-.887 3.3 6.557 6.557 0 0 0 2.919 5.463 6.565 6.565 0 0 1-2.975-.819v.081a6.565 6.565 0 0 0 5.269 6.437 6.574 6.574 0 0 1-2.968.112 6.588 6.588 0 0 0 6.131 4.563 13.17 13.17 0 0 1-9.725 2.719 18.568 18.568 0 0 0 10.069 2.95c12.075 0 18.681-10.006 18.681-18.681 0-.287-.006-.569-.019-.85A13.216 13.216 0 0 0 32 7.076z"/></symbol>

<symbol id="icon-Google-Play" viewBox="0 0 98 32"><path fill="#080809" d="M16 0h65.829c8.837 0 16 7.163 16 16s-7.163 16-16 16H16C7.163 32 0 24.837 0 16S7.163 0 16 0z" style="fill:var(--color1, #080809)"/><path fill="#2196f3" d="m26.064 15.544-9.183 8.842a1.564 1.564 0 0 1-.681-1.303V8.005a1.56 1.56 0 0 1 .681-1.303l9.183 8.842z" style="fill:var(--color2, #2196f3)"/><path fill="#4caf50" d="m29.277 12.456-3.213 3.089-9.183-8.842c.035-.027.071-.052.108-.075a1.57 1.57 0 0 1 1.586-.025l10.702 5.853z" style="fill:var(--color3, #4caf50)"/><path fill="#f0bb1f" d="M33.171 15.544a1.586 1.586 0 0 1-.83 1.411l-3.064 1.677-3.213-3.089 3.213-3.089 3.064 1.677c.517.28.836.823.83 1.411z" style="fill:var(--color4, #f0bb1f)"/><path fill="#f15a2b" d="m29.277 18.633-10.702 5.853a1.593 1.593 0 0 1-1.586-.025 1.303 1.303 0 0 1-.108-.075l9.183-8.842 3.213 3.089z" style="fill:var(--color5, #f15a2b)"/><path fill="#fff" d="M43.908 10.862h-2.567v1.024h1.368c-.183.49-.629.79-1.309.79-.995 0-1.609-.636-1.609-1.507 0-.9.644-1.536 1.507-1.536.578 0 1.039.263 1.251.6l.995-.571c-.432-.688-1.258-1.17-2.238-1.17a2.655 2.655 0 0 0-2.684 2.67c0 1.47 1.156 2.655 2.765 2.655 1.434 0 2.523-.951 2.523-2.516v-.439zM45.372 12.588v-.907h1.829v-1.112h-1.829v-.848h2.011V8.595h-3.182v5.12h3.218v-1.126h-2.048z" style="fill:var(--color6, #fff)"/><path fill="#fff" d="M51.152 8.594h-3.803V9.72h1.317v3.994h1.17V9.72h1.317V8.594zM52.762 8.594v5.12h1.17v-5.12h-1.17zM57.884 8.594h-3.803V9.72h1.317v3.994h1.17V9.72h1.317V8.594zM61.936 13.817c1.47 0 2.662-1.156 2.662-2.662s-1.192-2.662-2.662-2.662-2.662 1.156-2.662 2.662 1.192 2.662 2.662 2.662zm0-1.141c-.834 0-1.492-.607-1.492-1.521s.658-1.521 1.492-1.521 1.492.607 1.492 1.521-.658 1.521-1.492 1.521zM67.744 8.594v2.779l-1.975-2.779h-.878v5.12h1.17v-2.779l1.975 2.779h.878v-5.12h-1.17zM43.908 19.558v.198a2.16 2.16 0 0 1-.68 1.616c-.453.434-1.051.651-1.792.651-.78 0-1.424-.254-1.931-.761-.507-.512-.761-1.139-.761-1.88s.251-1.365.753-1.872c.502-.512 1.139-.768 1.909-.768.468 0 .897.112 1.287.336.395.224.7.524.914.9l-.344.205a1.934 1.934 0 0 0-.761-.775 2.125 2.125 0 0 0-1.097-.293c-.663 0-1.209.219-1.638.658-.424.434-.636.97-.636 1.609s.215 1.178.644 1.616c.429.434.983.651 1.66.651.6 0 1.085-.163 1.456-.49s.578-.739.622-1.236h-2.172v-.366h2.567zM49.1 21.255c-.512.512-1.136.768-1.872.768s-1.36-.256-1.872-.768c-.512-.517-.768-1.141-.768-1.872s.256-1.353.768-1.865c.512-.517 1.136-.775 1.872-.775s1.36.258 1.872.775c.512.512.768 1.134.768 1.865s-.256 1.356-.768 1.872zm-3.475-.263c.439.439.973.658 1.602.658s1.16-.219 1.594-.658c.439-.444.658-.98.658-1.609s-.219-1.163-.658-1.602c-.434-.444-.965-.666-1.594-.666s-1.163.222-1.602.666c-.434.439-.651.973-.651 1.602s.217 1.165.651 1.609zM55.071 21.255c-.512.512-1.136.768-1.872.768s-1.36-.256-1.872-.768c-.512-.517-.768-1.141-.768-1.872s.256-1.353.768-1.865c.512-.517 1.136-.775 1.872-.775s1.36.258 1.872.775c.512.512.768 1.134.768 1.865s-.256 1.356-.768 1.872zm-3.474-.263c.439.439.973.658 1.602.658s1.16-.219 1.595-.658c.439-.444.658-.98.658-1.609s-.219-1.163-.658-1.602c-.434-.444-.965-.666-1.594-.666s-1.163.222-1.602.666c-.434.439-.651.973-.651 1.602s.217 1.165.651 1.609zM61.693 19.558v.198a2.16 2.16 0 0 1-.68 1.616c-.453.434-1.051.651-1.792.651-.78 0-1.424-.254-1.931-.761-.507-.512-.761-1.139-.761-1.88s.251-1.365.753-1.872c.502-.512 1.139-.768 1.909-.768.468 0 .897.112 1.287.336.395.224.7.524.914.9l-.344.205a1.934 1.934 0 0 0-.761-.775 2.125 2.125 0 0 0-1.097-.293c-.663 0-1.209.219-1.638.658-.424.434-.636.97-.636 1.609s.215 1.178.644 1.616c.429.434.983.651 1.66.651.6 0 1.085-.163 1.456-.49s.578-.739.622-1.236h-2.172v-.366h2.567zM63.053 21.577h2.414v.366h-2.801v-5.12h.388v4.754zM66.66 21.577h2.56v.366h-2.948v-5.12h2.911v.366H66.66v1.989h2.341v.366H66.66v2.033zM73.863 16.823c.458 0 .839.151 1.141.454s.454.68.454 1.134c0 .453-.151.831-.454 1.134-.302.297-.683.446-1.141.446H72.51v1.953h-.388v-5.12h1.741zm0 2.801a1.18 1.18 0 0 0 1.207-1.214c0-.356-.115-.648-.344-.878-.224-.229-.512-.344-.863-.344H72.51v2.436h1.353zM76.803 21.577h2.414v.366h-2.801v-5.12h.388v4.754zM83.61 21.943l-.497-1.302h-2.567l-.497 1.302h-.41l1.99-5.12h.41l1.982 5.12h-.41zm-2.918-1.668h2.282l-1.141-2.977-1.141 2.977zM87.663 16.823l-1.865 3.014v2.107h-.388v-2.107l-1.865-3.014h.439l1.624 2.64 1.616-2.64h.439z" style="fill:var(--color6, #fff)"/></symbol>

	<symbol id="icon-Play-Store" viewBox="0 0 91 32"><path fill="#080809" d="M16 0h59.429c8.837 0 16 7.163 16 16s-7.163 16-16 16H16C7.163 32 0 24.837 0 16S7.163 0 16 0z" style="fill:var(--color1, #080809)"/><path fill="#fff" d="M19.922 21.943c-2.177-.013-3.978-4.457-3.978-6.72 0-3.697 2.774-4.507 3.843-4.507.482 0 .996.189 1.45.357.317.117.645.237.828.237.109 0 .367-.102.594-.193.485-.193 1.088-.433 1.79-.433h.004c.524 0 2.114.115 3.07 1.551l.224.337-.322.243c-.46.347-1.3.981-1.3 2.236 0 1.487.951 2.058 1.408 2.333.202.121.41.247.41.52 0 .179-1.426 4.016-3.498 4.016-.507 0-.865-.152-1.181-.287-.32-.136-.596-.253-1.051-.253-.231 0-.523.109-.832.225-.423.158-.901.337-1.444.337h-.014zM24.667 7.314c.054 1.945-1.337 3.294-2.726 3.21-.229-1.552 1.389-3.21 2.726-3.21zM35.685 11.886h.96l-1.306-3.84H34.22l-1.306 3.84h.96l.192-.603h1.426l.192.603zM34.33 10.46l.45-1.41.45 1.41h-.9zM38.587 9.143l-.571 1.739-.571-1.739h-.911l1.015 2.743h.933l1.015-2.743h-.911zM41.684 9.143v.258c-.181-.208-.45-.335-.817-.335-.719 0-1.311.631-1.311 1.448s.592 1.448 1.311 1.448c.368 0 .636-.126.817-.335v.258h.823V9.142h-.823zm-.653 2.041c-.379 0-.653-.258-.653-.669s.274-.669.653-.669.653.258.653.669-.274.669-.653.669zM43.111 11.886h.823V7.881h-.823v4.005zM44.947 8.902c.269 0 .494-.225.494-.494s-.225-.494-.494-.494-.494.225-.494.494.225.494.494.494zm-.411 2.984h.823V9.143h-.823v2.743zM47.601 9.066c-.368 0-.636.126-.817.335V8.046h-.823v3.84h.823v-.258c.181.208.45.335.817.335.719 0 1.311-.631 1.311-1.448s-.592-1.448-1.311-1.448zm-.165 2.118c-.379 0-.653-.258-.653-.669s.274-.669.653-.669.653.258.653.669-.274.669-.653.669zM49.378 11.886h.823V7.881h-.823v4.005zM51.539 10.844h1.947c.022-.104.033-.214.033-.329 0-.828-.592-1.448-1.393-1.448-.867 0-1.459.631-1.459 1.448s.581 1.448 1.52 1.448c.521 0 .927-.192 1.196-.565l-.658-.379a.716.716 0 0 1-.527.208c-.302 0-.554-.099-.658-.384zm-.017-.615c.077-.28.285-.433.598-.433.247 0 .494.115.581.433h-1.179zM56.674 11.963c.806 0 1.454-.631 1.454-1.448s-.647-1.448-1.454-1.448c-.806 0-1.454.631-1.454 1.448s.647 1.448 1.454 1.448zm0-.801c-.357 0-.631-.258-.631-.647s.274-.647.631-.647.631.258.631.647-.274.647-.631.647zM60.2 9.066c-.362 0-.636.132-.784.335v-.258h-.823v2.743h.823v-1.498c0-.389.208-.565.51-.565.263 0 .477.159.477.499v1.563h.823v-1.684c0-.741-.472-1.136-1.026-1.136zM64.77 9.933v-.79h-.565v-.768l-.823.247v.521h-.439v.79h.439v.971c0 .768.313 1.092 1.388.982v-.746c-.362.022-.565 0-.565-.236v-.971h.565zM66.843 9.066c-.362 0-.636.132-.784.335V8.046h-.823v3.84h.823v-1.498c0-.389.208-.565.51-.565.263 0 .477.159.477.499v1.563h.823v-1.684c0-.741-.472-1.136-1.026-1.136zM69.169 10.844h1.947c.022-.104.033-.214.033-.329 0-.828-.592-1.448-1.393-1.448-.867 0-1.459.631-1.459 1.448s.582 1.448 1.52 1.448c.521 0 .927-.192 1.196-.565l-.658-.379a.716.716 0 0 1-.527.208c-.302 0-.554-.099-.658-.384zm-.017-.615c.077-.28.285-.433.598-.433.247 0 .494.115.582.433h-1.179zM37.531 21.943h1.6l-2.176-6.4H35.09l-2.176 6.4h1.6l.32-1.006h2.377l.32 1.006zm-2.258-2.377.75-2.35.75 2.35h-1.499zM42.365 17.244c-.613 0-1.061.21-1.362.558v-.43h-1.371v6.4h1.371v-2.258c.302.347.75.558 1.362.558 1.198 0 2.185-1.051 2.185-2.414s-.987-2.414-2.185-2.414zm-.274 3.529c-.631 0-1.088-.43-1.088-1.115s.457-1.115 1.088-1.115 1.088.43 1.088 1.115-.457 1.115-1.088 1.115zM48.062 17.244c-.613 0-1.061.21-1.362.558v-.43h-1.371v6.4H46.7v-2.258c.302.347.75.558 1.362.558 1.198 0 2.185-1.051 2.185-2.414s-.987-2.414-2.185-2.414zm-.275 3.529c-.631 0-1.088-.43-1.088-1.115s.457-1.115 1.088-1.115 1.088.43 1.088 1.115-.457 1.115-1.088 1.115zM51.024 21.943h1.371v-6.674h-1.371v6.674zM54.624 20.206h3.246c.037-.174.055-.357.055-.549 0-1.381-.987-2.414-2.322-2.414-1.445 0-2.432 1.051-2.432 2.414s.969 2.414 2.533 2.414c.869 0 1.545-.32 1.993-.942l-1.097-.631c-.183.201-.503.347-.878.347-.503 0-.923-.165-1.097-.64zm-.027-1.024c.128-.466.475-.722.997-.722.411 0 .823.192.969.722h-1.966zM63.274 22.071c1.39 0 2.377-.731 2.377-1.966 0-1.353-1.088-1.691-2.057-1.984-.997-.302-1.152-.503-1.152-.795 0-.256.229-.485.686-.485.585 0 .887.283 1.106.741l1.234-.722c-.466-.942-1.289-1.445-2.341-1.445-1.106 0-2.148.713-2.148 1.947 0 1.225.932 1.682 1.883 1.947.96.265 1.326.421 1.326.814 0 .247-.174.521-.869.521-.722 0-1.115-.357-1.344-.887l-1.262.731c.357.942 1.216 1.582 2.56 1.582zM68.882 18.688v-1.317h-.942v-1.28l-1.371.411v.869h-.731v1.317h.731v1.618c0 1.28.521 1.819 2.313 1.637V20.7c-.603.037-.942 0-.942-.393v-1.618h.942zM71.763 22.071c1.344 0 2.423-1.051 2.423-2.414s-1.079-2.414-2.423-2.414-2.423 1.051-2.423 2.414 1.079 2.414 2.423 2.414zm0-1.335c-.594 0-1.051-.43-1.051-1.079s.457-1.079 1.051-1.079c.594 0 1.051.43 1.051 1.079s-.457 1.079-1.051 1.079zM76.333 18.185v-.814h-1.371v4.571h1.371v-2.066c0-.905.805-1.134 1.371-1.042V17.28c-.576 0-1.189.293-1.371.905zM79.437 20.206h3.246c.037-.174.055-.357.055-.549 0-1.381-.987-2.414-2.322-2.414-1.445 0-2.432 1.051-2.432 2.414s.969 2.414 2.533 2.414c.869 0 1.545-.32 1.993-.942l-1.097-.631c-.183.201-.503.347-.878.347-.503 0-.923-.165-1.097-.64zm-.028-1.024c.128-.466.475-.722.997-.722.411 0 .823.192.969.722h-1.966z" style="fill:var(--color2, #fff)"/></symbol>

	<symbol id="icon-building" viewBox="0 0 32 32"><path fill="#84829a" d="M.533 30.933h3.2v-17.6c0-.295.239-.533.533-.533h7.467V.533c0-.295.239-.533.533-.533h13.867c.294 0 .533.239.533.533v30.4h4.8a.533.533 0 1 1 0 1.066H.533a.533.533 0 1 1 0-1.066zm20.267 0h2.133v-4.8a.533.533 0 0 0-.533-.533h-1.067a.533.533 0 0 0-.533.533v4.8zm-2.133-17.6v17.6h1.067v-4.8a1.6 1.6 0 0 1 1.6-1.6h1.067a1.6 1.6 0 0 1 1.6 1.6v4.8h1.6V1.066h-12.8v11.733h5.333c.295 0 .533.239.533.533zM4.8 30.933h12.8V13.866H4.8v17.067z" style="fill:var(--color1, #84829a)"/><path fill="#84829a" d="M14.933 7.467h3.2c.295 0 .533.239.533.533v3.2a.533.533 0 0 1-.533.533h-3.2a.533.533 0 0 1-.533-.533V8c0-.295.239-.533.533-.533zm.533 3.2h2.133V8.534h-2.133v2.133zM14.933 2.133h3.2c.295 0 .533.239.533.533v3.2a.533.533 0 0 1-.533.533h-3.2a.533.533 0 0 1-.533-.533v-3.2c0-.295.239-.533.533-.533zm.533 3.2h2.133V3.2h-2.133v2.133zM20.267 7.467h3.2c.295 0 .533.239.533.533v3.2a.533.533 0 0 1-.533.533h-3.2a.533.533 0 0 1-.533-.533V8c0-.295.239-.533.533-.533zm.533 3.2h2.133V8.534H20.8v2.133zM20.267 2.133h3.2c.295 0 .533.239.533.533v3.2a.533.533 0 0 1-.533.533h-3.2a.533.533 0 0 1-.533-.533v-3.2c0-.295.239-.533.533-.533zm.533 3.2h2.133V3.2H20.8v2.133zM20.267 12.8h3.2c.295 0 .533.239.533.533v3.2a.533.533 0 0 1-.533.533h-3.2a.533.533 0 0 1-.533-.533v-3.2c0-.295.239-.533.533-.533zM20.8 16h2.133v-2.133H20.8V16zM20.267 18.133h3.2c.295 0 .533.239.533.533v3.2a.533.533 0 0 1-.533.533h-3.2a.533.533 0 0 1-.533-.533v-3.2c0-.295.239-.533.533-.533zm.533 3.2h2.133V19.2H20.8v2.133zM10.133 24.533h-3.2A.533.533 0 0 1 6.4 24v-3.2c0-.295.239-.533.533-.533h3.2c.295 0 .533.239.533.533V24a.533.533 0 0 1-.533.533zm-.533-3.2H7.467v2.133H9.6v-2.133zM10.133 19.2h-3.2a.533.533 0 0 1-.533-.533v-3.2c0-.295.239-.533.533-.533h3.2c.295 0 .533.239.533.533v3.2a.533.533 0 0 1-.533.533zM9.6 16H7.467v2.133H9.6V16zM10.133 29.867h-3.2a.533.533 0 0 1-.533-.533v-3.2c0-.295.239-.533.533-.533h3.2c.295 0 .533.239.533.533v3.2a.533.533 0 0 1-.533.533zm-.533-3.2H7.467V28.8H9.6v-2.133zM15.467 24.533h-3.2a.533.533 0 0 1-.533-.533v-3.2c0-.295.239-.533.533-.533h3.2c.295 0 .533.239.533.533V24a.533.533 0 0 1-.533.533zm-.534-3.2H12.8v2.133h2.133v-2.133zM15.467 19.2h-3.2a.533.533 0 0 1-.533-.533v-3.2c0-.295.239-.533.533-.533h3.2c.295 0 .533.239.533.533v3.2a.533.533 0 0 1-.533.533zm-.534-3.2H12.8v2.133h2.133V16zM15.467 29.867h-3.2a.533.533 0 0 1-.533-.533v-3.2c0-.295.239-.533.533-.533h3.2c.295 0 .533.239.533.533v3.2a.533.533 0 0 1-.533.533zm-.534-3.2H12.8V28.8h2.133v-2.133z" style="fill:var(--color1, #84829a)"/></symbol>
	
	<symbol id="icon-envelop" viewBox="0 0 37 32"><path fill="none" stroke="#39425d" stroke-linecap="round" stroke-width="1.778" d="m7.111 10.667 9.6 7.2a1.777 1.777 0 0 0 2.133 0l9.6-7.2" style="stroke:var(--color2, #39425d)"/><path fill="none" stroke="#39425d" stroke-width="1.778" d="M8.889.889h19.556a8 8 0 0 1 8 8v14.222a8 8 0 0 1-8 8H8.889a8 8 0 0 1-8-8V8.889a8 8 0 0 1 8-8z" style="stroke:var(--color2, #39425d)"/></symbol>
	
	<symbol id="icon-send" viewBox="0 0 33 32"><path fill="#fff" d="M27.353 9.448a2.403 2.403 0 0 1-.177 2.706L13.741 29.686a2.43 2.43 0 0 1-2.399.913 2.428 2.428 0 0 1-1.889-1.737l-2.195-7.811-5.667-5.807a2.428 2.428 0 0 1-.56-2.505 2.432 2.432 0 0 1 1.99-1.622l21.901-2.869a2.404 2.404 0 0 1 2.432 1.2z" style="fill:var(--color3, #fff)"/><path fill="#fff" d="m7.464 21.786 1.988 7.075a2.426 2.426 0 0 0 1.889 1.737 2.427 2.427 0 0 0 2.399-.913l13.435-17.532a2.405 2.405 0 0 0 .177-2.706L7.256 21.049l.207.736z" style="fill:var(--color3, #fff)"/><path d="M15.435 16.328a.74.74 0 0 1-.271 1.012l-7.699 4.445-.207-.736-.534-.547 7.699-4.445a.74.74 0 0 1 1.012.271z" style="fill:var(--color4, #000)"/><path d="m7.465 21.786 7.699-4.445a.74.74 0 0 0 .271-1.012L7.257 21.05l.207.736z" style="fill:var(--color4, #000)"/></symbol>

</defs></svg>